# xmcd
#
# Track frame offsets: 
#        150
#        13219
#        25138
#        39513
#        51866
#        63978
#        76381
#        88411
#        101759
#        114943
#        128399
#        140007
#        152404
#        164784
#        176171
#        188220
#        200784
#        215388
#        227178
#        238784
#
# Disc length: 3333 seconds
#
# Revision: 7
# Processed by: cddbd v1.5.2PL0 Copyright (c) Steve Scherf et al.
# Submitted via: ExactAudioCopy v0.95b4
#
DISCID=1d0d0314
DTITLE=Various Artist - Boogie Woogie [disc 6]
DYEAR=2003
DGENRE=Boogie Woogie
TTITLE0=Gene Rodgers - G R Boogie
TTITLE1=T-Bone Walker - Sail On
TTITLE2=Lionel Hampton - Boogie for Two Fingers
TTITLE3=Jim Wynn - Rock Boogie Woogie
TTITLE4=Jack McVea - Bartender Boogie
TTITLE5=Joe Liggins - Dripper's Boogie
TTITLE6=Luke Jones - Jump the Boogie Woogie
TTITLE7=Jack McVea - Frantic Boogie
TTITLE8=Lionel Hampton - Hampton's Walking Boogie
TTITLE9=Hadda Brooks - At the Band Box
TTITLE10=Al Dexter - New Broom Boogie
TTITLE11=Spade Cooley - Big Chief Boogie
TTITLE12=Jimmy Grissom - Frank Bull's Boogie
TTITLE13=Big Three Trio - The Big Three Boogie [1947]
TTITLE14=Oscar Peterson Trio - Oscar Plays the Boogie
TTITLE15=Jesse Price - Blue Book Boogie
TTITLE16=Pete Johnson - Swanee River Boogie
TTITLE17=Hadda Brooks - Hungarian Rhapsody in Boogie
TTITLE18=Milt Buckner - Fat Stuff Boogie
TTITLE19=Mabel Scott - Elevator Boogie
EXTD=Box-set previously released as "The Best of Boogie Woogie", Docum
EXTD=ents 220668 (2004-01-13).\n10CD: Documents/Membran 223006-321 (20
EXTD=05-07-25), EAN 4011222230065, ISBN 3-86562-751-X.
EXTT0=(Rodgers)
EXTT1=(Walker)
EXTT2=(Hampton)
EXTT3=(Luper)
EXTT4=(McVea/Mosley)
EXTT5=(Liggins)
EXTT6=(Jones)
EXTT7=(McVea)
EXTT8=(Hampton)
EXTT9=(Brooks)
EXTT10=(Dexter)
EXTT11=(Cooley)
EXTT12=(Grissom)
EXTT13=(Big Three]\nRecorded 1947-12-30 (mx CCO4984) - Columbia/Microph
EXTT13=one 30125, as "Big Three Boogie".\nLeonard "Baby Doo" Caston: p
EXTT13=iano\nOllie Crawford: guitar\nWillie Dixon: bass
EXTT14=(Peterson)
EXTT15=(White)
EXTT16=(Johnson)
EXTT17=(Brooks)
EXTT18=(Buckner)
EXTT19=(Ray)
PLAYORDER=
